<?xml version="1.0" encoding="UTF-8" standalone="no"?>
<!-- Created with Inkscape (http://www.inkscape.org/) -->

<svg
   width="8.1568384mm"
   height="11.751675mm"
   viewBox="0 0 8.1568384 11.751674"
   version="1.1"
   id="svg5"
   inkscape:label="tgs2450"
   inkscape:version="1.1 (c68e22c387, 2021-05-23)"
   sodipodi:docname="TGS2450_icon.svg"
   xmlns:inkscape="http://www.inkscape.org/namespaces/inkscape"
   xmlns:sodipodi="http://sodipodi.sourceforge.net/DTD/sodipodi-0.dtd"
   xmlns="http://www.w3.org/2000/svg"
   xmlns:svg="http://www.w3.org/2000/svg"
   xmlns:rdf="http://www.w3.org/1999/02/22-rdf-syntax-ns#"
   xmlns:cc="http://creativecommons.org/ns#"
   xmlns:dc="http://purl.org/dc/elements/1.1/">
  <title
     id="title26015">TGS2450_breadboard</title>
  <sodipodi:namedview
     id="namedview7"
     pagecolor="#ffffff"
     bordercolor="#666666"
     borderopacity="1.0"
     inkscape:pageshadow="2"
     inkscape:pageopacity="0.0"
     inkscape:pagecheckerboard="0"
     inkscape:document-units="mm"
     showgrid="false"
     fit-margin-top="0"
     fit-margin-left="0"
     fit-margin-right="0"
     fit-margin-bottom="0"
     inkscape:zoom="2"
     inkscape:cx="87"
     inkscape:cy="109.75"
     inkscape:window-width="1920"
     inkscape:window-height="1001"
     inkscape:window-x="-9"
     inkscape:window-y="-9"
     inkscape:window-maximized="1"
     inkscape:current-layer="layer1" />
  <defs
     id="defs2" />
  <g
     inkscape:label="tgs2450"
     id="layer1"
     transform="translate(-11.33125,-9.613956)"
     inkscape:groupmode="layer">
    <g
       id="g815"
       transform="matrix(0.7,0,0,0.7,6.2662501,5.813956)">
      <circle
         style="fill:#c8b7b7;fill-rule:evenodd;stroke-width:0.264583"
         id="path31"
         cx="12.95"
         cy="14"
         r="5" />
      <circle
         style="fill:#917c6f;fill-rule:evenodd;stroke-width:0.264583"
         id="path135"
         cx="13"
         cy="14"
         r="2" />
    </g>
    <g
       id="g232"
       inkscape:label="pins">
      <rect
         style="fill:#c8ab37;stroke-width:0.374177"
         id="SENSOR"
         width="1.5"
         height="4"
         x="15.92125"
         y="17.265957"
         inkscape:label="pin 3" />
      <rect
         style="fill:#c8ab37;stroke-width:0.374177"
         id="NC"
         width="1.5"
         height="4"
         x="13.38125"
         y="17.265957"
         inkscape:label="pin 2" />
      <rect
         style="fill:#c8ab37;stroke-width:0.374177"
         id="HEATER"
         width="1.5"
         height="4"
         x="15.92125"
         y="9.645833"
         inkscape:label="pin 4" />
      <rect
         style="fill:#c8ab37;stroke-width:0.374177"
         id="GND"
         width="1.5"
         height="4"
         x="13.38125"
         y="9.645833"
         inkscape:label="pin 1" />
    </g>
    <g
       aria-label="1"
       id="text4724"
       style="font-size:3.52778px;line-height:1.25;font-family:OCRA;-inkscape-font-specification:OCRA;stroke-width:0.264583"
       transform="translate(0.197195,1.0000006)">
      <path
         d="m 11.134055,11.185708 q 0,-0.07056 0.04939,-0.123473 0.05292,-0.05292 0.127,-0.05292 h 0.522111 V 8.9702618 h -0.522111 q -0.07408,0 -0.127,-0.052917 -0.04939,-0.052917 -0.04939,-0.1270001 0,-0.070556 0.04939,-0.1234723 0.05292,-0.052917 0.127,-0.052917 h 0.878417 v 2.3953626 h 0.345722 v -0.719667 q 0,-0.07408 0.04939,-0.127001 0.05292,-0.05292 0.127,-0.05292 0.07408,0 0.127,0.05292 0.05292,0.05292 0.05292,0.127001 v 0.896056 q 0,0.07408 -0.05292,0.127 -0.05292,0.05292 -0.127,0.05292 h -1.400528 q -0.07408,0 -0.127,-0.05292 -0.04939,-0.05292 -0.04939,-0.127 z"
         id="path68" />
    </g>
    <g
       aria-label="2"
       id="text10934"
       style="font-size:3.52778px;line-height:1.25;font-family:OCRA;-inkscape-font-specification:'OCRA, Normal';stroke-width:0.264583"
       transform="translate(0.329488,-2.544785)">
      <path
         d="M 11.001763,23.910416 V 22.71097 q 0,-0.144639 0.105833,-0.246944 0.105834,-0.105834 0.250473,-0.105834 h 1.044222 v -0.843139 h -1.224139 q -0.07408,0 -0.127,-0.05292 -0.04939,-0.05292 -0.04939,-0.127 0,-0.07055 0.04939,-0.123472 0.05292,-0.05292 0.127,-0.05292 h 1.224139 q 0.141112,0 0.246945,0.105834 0.109361,0.105833 0.109361,0.250472 v 0.843139 q 0,0.141112 -0.105833,0.246945 -0.105834,0.105833 -0.250473,0.105833 h -1.044222 v 0.84314 h 1.220611 q 0.07408,0 0.127001,0.05292 0.05292,0.05292 0.05292,0.123472 0,0.07408 -0.05292,0.127 -0.05292,0.05292 -0.127001,0.05292 z"
         id="path110" />
    </g>
    <g
       aria-label="3"
       id="text36248"
       style="font-size:3.52778px;line-height:1.25;font-family:OCRA;-inkscape-font-specification:'OCRA, Normal';stroke-width:0.264583"
       transform="translate(-0.088639,-2.280194)">
      <path
         d="m 17.819889,23.465915 q 0,-0.07055 0.04939,-0.123472 0.05292,-0.05292 0.127001,-0.05292 h 1.224139 v -0.663222 q 0,-0.07056 -0.05644,-0.123473 -0.05292,-0.05644 -0.123473,-0.05644 h -0.694972 q -0.07408,0 -0.127,-0.04939 -0.04939,-0.05292 -0.04939,-0.127 0,-0.07408 0.04939,-0.127 0.05292,-0.05292 0.127,-0.05292 H 19.0405 q 0.07408,0 0.127001,-0.05292 0.05292,-0.05292 0.05292,-0.123472 v -0.663223 h -1.224139 q -0.07408,0 -0.127001,-0.05292 -0.04939,-0.05292 -0.04939,-0.127 0,-0.07056 0.04939,-0.123473 0.05292,-0.05292 0.127001,-0.05292 h 1.224139 q 0.141111,0 0.246945,0.105833 0.109361,0.105833 0.109361,0.250472 v 0.663223 q 0,0.204611 -0.141111,0.356306 0.141111,0.151694 0.141111,0.356306 v 0.663222 q 0,0.144639 -0.109361,0.250473 -0.105834,0.105833 -0.246945,0.105833 h -1.224139 q -0.07408,0 -0.127001,-0.05292 -0.04939,-0.05292 -0.04939,-0.127 z"
         id="path131" />
    </g>
    <g
       aria-label="4"
       id="text49774"
       style="font-size:3.52777px;line-height:1.25;font-family:OCRA;-inkscape-font-specification:'OCRA, Normal';stroke-width:0.264583"
       transform="translate(-0.437887,0.7354091)">
      <path
         d="M 18.169137,10.730627 V 9.0549359 q 0,-0.070555 0.05292,-0.123472 0.05292,-0.052917 0.127,-0.052917 0.07408,0 0.123472,0.052917 0.05292,0.052917 0.05292,0.123472 V 10.374322 H 19.22042 V 9.3547963 q 0,-0.074083 0.05292,-0.1234719 0.05292,-0.052917 0.127,-0.052917 0.07056,0 0.123472,0.052917 0.05292,0.049389 0.05292,0.1234719 v 1.0195257 q 0.07408,0 0.123472,0.05292 0.05292,0.05292 0.05292,0.127 0,0.07408 -0.05292,0.127 -0.04939,0.04939 -0.123472,0.04939 v 0.719665 q 0,0.07408 -0.05292,0.126999 -0.05292,0.05292 -0.123472,0.05292 -0.07408,0 -0.127,-0.05292 -0.05292,-0.05292 -0.05292,-0.126999 v -0.719665 z"
         id="path89" />
    </g>
  </g>
  <metadata
     id="metadata26013">
    <rdf:RDF>
      <cc:Work
         rdf:about="">
        <dc:title>TGS2450_breadboard</dc:title>
      </cc:Work>
    </rdf:RDF>
  </metadata>
</svg>
